<?xml version="1.0" encoding="utf-8"?>
<!-- Generator: Adobe Illustrator 25.4.1, SVG Export Plug-In . SVG Version: 6.00 Build 0)  -->
<svg version="1.1" id="Layer_1" xmlns="http://www.w3.org/2000/svg" xmlns:xlink="http://www.w3.org/1999/xlink" x="0px" y="0px"
	 viewBox="0 0 841.89 595.28" style="enable-background:new 0 0 841.89 595.28;" xml:space="preserve">
<style type="text/css">
	.st0{fill:#FFFFFF;}
</style>
<g>
	<path class="st0" d="M380.49,302.46c-0.16-1.01-0.49-2.05-1-3.13c-3.02-6.35-7.1-12.71-10.35-19.09
		c-14.06-27.57-27.73-55.34-41.4-83.1c-2.08-4.21-4.15-8.43-6.23-12.64c-3.69-7.5-7.39-15-10.78-22.64
		c-7.34-16.53,7.58-31.55,24.13-22.03c8.87,5.1,12.41,15.85,15.79,25.51c6.17,17.64,14.09,34.61,22.01,51.53
		c3.87,8.29,7.82,16.73,13.34,24.08c3.7,4.93,7.97,11.71,13.32,14.98c8.68,5.29,10.75-2.04,15.05-9.27c19-31.95,38-63.9,57-95.84
		c13.44-22.61,26.89-45.22,41.16-67.31c3.46-5.35,6.96-10.67,10.51-15.96c6.33-9.43,13.34-20.07,22.84-26.97
		c7.17-5.21,33.59-10.84,28.86,6.53c-1.13,4.14-4.24,7.4-7.18,10.52c-38.66,41.1-66.02,92.8-94.25,141.21
		c-14.08,24.14-46.69,84.95-46.12,93.67c0.13,2.07,0.59,6.37,2.7,12.15c3.73,10.21,46.88,51.69,54.67,53.59
		c8.3,2.03,15.68-6.92,23.11-9.13c5.33-1.58,11.55-1.27,15.9,2.2c4.09,3.25,5.88,8.79,5.59,14c-0.6,10.69-9.12,19.73-19.08,23.66
		c-9.95,3.93-21.07,3.61-31.68,2.17c-29.68-4.02-46.14-20.85-66.19-40.81c-6.66-6.63-13.62-6.63-20.39-0.2
		c-10.3,9.77-16.43,26.99-23.17,39.27c-4.76,8.68-9.53,17.36-14.15,26.12c-8.92,16.88-17.33,34.07-24.07,51.93
		c-4.9,12.99-8.92,26.53-10.01,40.43c-0.36,4.68-2.15,17.06,0.95,20.99c3.81,4.83,18.02-0.69,24.48,2.03
		c1.43,0.6,2.85,1.38,3.75,2.64c4.29,6.03-4.32,15.87-9.24,18.71c-14.53,8.37-33.91,10.58-46.35-2.66
		c-16.65-17.73-9.06-42.73-3.34-63.21c13.15-47.03,39.75-89.83,62.91-132.44c5.86-10.77,11.83-21.48,17.99-32.08
		C375.78,314.64,381.57,309.12,380.49,302.46z"/>
	<path class="st0" d="M239.35,396.61c7.07-6.27,10.41-26.03,13.27-35.19c4.4-14.05,8.15-28.3,11.24-42.69
		c6.17-28.79,9.68-58.14,10.43-87.58c0.32-12.61-0.84-29.75,16.79-28.89c5.77,0.28,10.86,4.24,13.95,9.12
		c3.09,4.88,4.49,10.61,5.71,16.25c1.97,9.14-0.49,16.43-8.55,21.73c-0.77,0.51-0.91,1.19-1.02,2.02
		c-7.03,55.5-12.23,113.01-39.43,163.08c-4.98,9.16-12.43,20.74-23.58,22.71c-14.1,2.49-21.84-10.99-25.47-22.42
		c-11.63-36.66-13.17-75.73-21.91-113.18c-2.8-11.99-6.34-23.81-10.59-35.36c-0.98-2.67-2.01-5.39-2.01-8.23
		c0.03-10.34,13.83-18.31,22.9-17.06c10.34,1.43,14.21,10.18,15.29,19.49c1.71,14.67,3.46,29.33,5.42,43.97
		c2.11,15.79,4.46,31.54,7.26,47.22c1.45,8.13,3.01,16.24,4.73,24.32c1.43,6.72,0.75,15.47,5.41,20.82
		C239.25,396.7,239.3,396.66,239.35,396.61z"/>
	<path class="st0" d="M572.14,306.92c0.12,0.08,0.25,0.15,0.39,0.23c8.97,4.93,29.69-3.97,35.33-11.7c0.22-0.31,0.45-0.65,0.46-1.03
		c0.14-4.7-16.96-11.45-20.43-12.83c-8.11-3.23-16.57-5.41-24.8-8.3c-15.09-5.3-30.37-11.03-42.89-20.98
		c-17.07-13.56-26.87-35.24-17.62-56.2c8.23-18.64,27.83-29.83,45.3-38.4c14.66-7.19,30.52-13.23,46.85-15.02
		c11.08-1.22,43.02-0.62,40.69,17.13c-0.46,3.55-2.16,6.8-3.82,9.96c-6.79,12.91-24.58,9.46-37.13,8.07
		c-21.59-2.39-39.78,7.31-56.23,21.05c-25.86,21.6,16.6,41.14,34.41,47.8c18.42,6.89,36.46,12.81,53.67,22.52
		c9.76,5.51,18.86,12.75,17.68,25.2c-0.71,7.41-4.74,14.16-9.87,19.56c-14.25,15.01-35.98,20.24-56.62,21.74
		c-10.5,0.76-22.37,0.22-29.6-7.44c-9.74-10.32-3.4-30.28,11.63-31.5C569.01,296.02,566.8,303.58,572.14,306.92z"/>
</g>
</svg>
